<svg xmlns="http://www.w3.org/2000/svg" viewBox="0 0 94.05 100"><title>&#x8D44;&#x6E90; 279</title><path d="M89.32 19.19a53.28 53.28 0 0 0-5.23-5.81C64.35-5.57 31.62-4.09 13.21 15.9A50.25 50.25 0 0 0 .51 42.53v.57a2 2 0 0 0 0 .24v.59l-.06.59c.36.38 1.08 1.11 1.12 1.15A188.3 188.3 0 0 0 21 62.93l.28.2s2.51 1.68 2.49 1.71l1.65 1.08.1.06.72.45.19.12.22.13.19.12.23.14.28.16.57.34.34.2.51.29.42.24.43.24.54.29.32.17.66.35a.57.57 0 0 1 .08-.13C23 63.12 22.09 48 25.54 39.65c7.21-17.38 31.57-21.52 44.1-7.53a4 4 0 0 1 .54.62c.49.58 1 1.19 1.4 1.82l22.06-9s-3.92-5.87-4.32-6.37z" fill="#fd6727"/><path d="M41.47 77.54l.51.11zM47.54 78.42h.54zM42.15 77.68l.67.13zM42.94 77.83l.57.1zM46.68 78.34q.34 0 .69.06-.37-.02-.69-.06zM46 78.27l.57.06zM45.24 78.18l.54.07zM44.4 78.07l.68.09zM40.68 77.37l.59.13zM38.44 76.81l.64.17zM40 77.2l.65.15zM39.27 77l.49.12zM43.71 78l.54.09zM54.24 78.33l.51-.06zM53.45 78.41l.65-.07zM55 78.24l.47-.07zM55.62 78.15l.64-.11zM52.79 78.46h.49zM51.15 78.52zM49 78.5h.69zM52.09 78.49h.48zM49.85 78.52zM48.28 78.46h.61zM51.24 78.52h.66z" fill="none"/><path d="M72.44 66.87l-.12.17-.32.43h.14-.15l-.99 1.2-.06.07s-1.1 1.24-1.75 1.88C65.84 74 61 77.19 56.26 78l-.64.11h-.19l-.47.07h-.21l-.51.06h-.14l-.65.07H47.37q-.34 0-.69-.06h-.12l-.56.02h-.21l-.54-.07h-.16l-.68-.09h-.15l-.55-.11h-.2l-.57-.1h-.12l-.67-.13h-.17l-.51-.11h-.2l-.59-.13h-.08l-.6-.33h-.19l-.54-.2h-.19l-.64-.17-.68-.19C27.87 73.72 19 67.71 11 60.86l-.54-.47c-.9-.79-1.79-1.58-2.67-2.38-1.43-1.28-2.79-2.58-4.16-3.88l-1-1-1.5-1.44-.25-.26-.88-.87c0 1.28.08 2.55.18 3.81 0 .42.08.83.13 1.25l.15 1.24c.05.41.12.83.19 1.24q.15.9.35 1.83a50 50 0 0 0 21.7 32l.51.32q.49.33 1 .63l.51.31c.69.4 1.39.79 2.1 1.16l.53.28c.54.27 1.08.54 1.63.79l.55.25 1.11.48c1.3.55 2.63 1 4 1.48l1.17.36a50.06 50.06 0 0 0 54.84-18.92 41.3 41.3 0 0 0 3.38-5.72l-20.52-8.16z" fill="#333"/></svg>